# xmcd
#
# Track frame offsets:
#	150
#	18254
#	32507
#	56405
#	70738
#	84448
#	112809
#	139475
#	163179
#	220675
#	254939
#	289856
#	307924
#	325546
#
# Disc length: 4384 seconds
#
# Revision: 1876878964
# Processed by: cddbd v1.5.2PL0 Copyright (c) Steve Scherf et al.
# Submitted via: EZCDAudioConverter 8.0.2.1
#
DISCID=bf111e0e
DTITLE=Breakout - Oni zaraz przyjdą tu (Złota kolekcja)
DYEAR=2001
DGENRE=Blues
TTITLE0=Na drugim brzegu tęczy
TTITLE1=Gdybyś kochał, hej
TTITLE2=Zapraszamy na korridę
TTITLE3=Kiedy byłem małym chłopcem
TTITLE4=Oni zaraz przyjdą tu
TTITLE5=Co stało się kwiatom
TTITLE6=Do kogo idziesz
TTITLE7=Rzeka dzieciństwa
TTITLE8=Wielki ogień
TTITLE9=Modlitwa
TTITLE10=W pochodzie codzienności
TTITLE11=Póki uśmiech ma twarz dziecka
TTITLE12=Dlaczego walczę
TTITLE13=Po ten księżyc złoty
EXTD=
EXTT0=
EXTT1=
EXTT2=
EXTT3=
EXTT4=
EXTT5=
EXTT6=
EXTT7=
EXTT8=
EXTT9=
EXTT10=
EXTT11=
EXTT12=
EXTT13=
PLAYORDER=
